#!OML:ASF H:\Dans Jumps\Project 1\Capture day 1\Session 1\subject.ASF
:FULLY-SPECIFIED
:DEGREES
285
root 0.146961 14.6947 -12.7911 32.1869 -0.742881 -4.23801
lowerback 19.6291 2.3245 -3.51537
upperback -1.55796 2.6345 2.99435
thorax -13.1653 1.61167 4.57568
lowerneck -25.7378 -0.696137 -2.24602
upperneck 5.64819 -0.292153 0.706985
head 5.73861 -0.138127 0.549795
rclavicle -2.5842e-015 -1.78906e-015
rhumerus -8.95737 -17.5222 -78.9109
rradius 23.5611
rwrist 39.5203
rhand -19.4605 -25.4809
rfingers 7.12502
rthumb 6.86067 -55.3498
lclavicle -2.5842e-015 -1.78906e-015
lhumerus -4.88044 23.4095 82.8903
lradius 14.2748
lwrist -14.6991
lhand -23.805 -6.63214
lfingers 7.12502
lthumb 2.66572 23.3309
rfemur -63.3155 -0.428768 24.0878
rtibia 74.7351
rfoot -37.9256 -23.6736
rtoes -10.6186
lfemur -66.225 12.1107 -18.16
ltibia 77.8355
lfoot -30.4044 22.8282
ltoes -33.6314
286
root 0.146062 14.7386 -12.6132 31.7273 -0.753392 -4.21937
lowerback 19.4237 2.29499 -3.54652
upperback -1.65031 2.59314 2.97948
thorax -13.1489 1.59646 4.5923
lowerneck -25.8503 -0.694838 -2.22189
upperneck 5.57411 -0.300136 0.74521
head 5.73074 -0.137384 0.55746
rclavicle 1.39149e-015 -2.52457e-014
rhumerus -8.76791 -16.2736 -78.595
rradius 24.4038
rwrist 38.7096
rhand -19.146 -25.3955
rfingers 7.12502
rthumb 7.16418 -55.2542
lclavicle 1.39149e-015 -2.52457e-014
lhumerus -5.04416 21.7093 82.4456
lradius 14.8489
lwrist -13.4087
lhand -23.433 -6.36528
lfingers 7.12502
lthumb 3.02496 23.593
rfemur -61.5596 -0.609306 24.1
rtibia 73.9177
rfoot -38.1589 -23.8671
rtoes -12.0046
lfemur -64.6931 12.3326 -18.0427
ltibia 77.4387
lfoot -30.353 22.8053
ltoes -34.2485
287
root 0.146091 14.7972 -12.4244 31.2308 -0.743069 -4.19536
lowerback 19.1774 2.25699 -3.54894
upperback -1.76935 2.54864 2.963
thorax -13.1373 1.57838 4.5919
lowerneck -25.9119 -0.698032 -2.20525
upperneck 5.56845 -0.311347 0.770628
head 5.73792 -0.139989 0.5618
rclavicle 2.56432e-014 1.07344e-014
rhumerus -8.84058 -14.8662 -78.1451
rradius 25.448
rwrist 37.6565
rhand -18.7553 -25.2864
rfingers 7.12502
rthumb 7.54135 -55.132
lclavicle 2.56432e-014 1.07344e-014
lhumerus -5.41461 19.6332 81.8971
lradius 15.5511
lwrist -11.6301
lhand -23.0792 -5.98342
lfingers 7.12502
lthumb 3.36664 23.9697
rfemur -59.6018 -0.820754 24.0971
rtibia 72.8613
rfoot -38.2889 -24.0285
rtoes -13.376
lfemur -62.9582 12.5034 -17.8733
ltibia 76.8224
lfoot -30.2468 22.6954
ltoes -34.8245
288
root 0.147277 14.8704 -12.2241 30.6989 -0.714122 -4.16796
lowerback 18.8962 2.21164 -3.52151
upperback -1.92157 2.50293 2.948
thorax -13.1419 1.55874 4.5767
lowerneck -25.9329 -0.705466 -2.20366
upperneck 5.66384 -0.321498 0.773284
head 5.77227 -0.14507 0.56126
rclavicle -7.95139e-016 -1.39149e-015
rhumerus -9.1875 -13.3241 -77.5634
rradius 26.6873
rwrist 36.4903
rhand -18.3882 -25.1693
rfingers 7.12502
rthumb 7.89571 -55.0018
lclavicle -7.95139e-016 -1.39149e-015
lhumerus -6.00886 17.1542 81.2617
lradius 16.4021
lwrist -9.29473
lhand -22.7922 -5.52709
lfingers 7.12502
lthumb 3.64376 24.4215
rfemur -57.4459 -1.07342 24.0848
rtibia 71.5597
rfoot -38.3014 -24.1436
rtoes -14.6761
lfemur -61.024 12.6348 -17.6605
ltibia 75.9782
lfoot -30.0804 22.4862
ltoes -35.3808
289
root 0.149787 14.9575 -12.0123 30.1411 -0.676459 -4.13523
lowerback 18.5724 2.16127 -3.4697
upperback -2.1116 2.45771 2.93367
thorax -13.1638 1.53875 4.54852
lowerneck -25.904 -0.72168 -2.23533
upperneck 5.86478 -0.332161 0.76307
head 5.83403 -0.153071 0.561756
rclavicle 1.53064e-014 -9.14409e-015
rhumerus -9.81572 -11.6733 -76.862
rradius 28.127
rwrist 35.3242
rhand -18.0918 -25.0659
rfingers 7.12502
rthumb 8.1817 -54.8875
lclavicle 1.53064e-014 -9.14409e-015
lhumerus -6.81993 14.3573 80.5613
lradius 17.391
lwrist -6.52126
lhand -22.5796 -5.04809
lfingers 7.12502
lthumb 3.84906 24.8969
rfemur -55.1114 -1.37482 24.0598
rtibia 70.0149
rfoot -38.1832 -24.1829
rtoes -15.8651
lfemur -58.9073 12.7455 -17.4264
ltibia 74.9037
lfoot -29.8457 22.1837
ltoes -35.9401
290
root 0.153828 15.0581 -11.7887 29.5488 -0.620899 -4.08565
lowerback 18.2122 2.0996 -3.39034
upperback -2.33026 2.40411 2.91578
thorax -13.1945 1.51334 4.50328
lowerneck -25.8161 -0.740992 -2.29589
upperneck 6.14832 -0.337623 0.741889
head 5.91434 -0.16094 0.5639
rclavicle 1.39149e-014 -9.14409e-015
rhumerus -10.686 -9.96608 -76.0705
rradius 29.736
rwrist 34.226
rhand -17.8817 -25.006
rfingers 7.12502
rthumb 8.3845 -54.8196
lclavicle 1.39149e-014 -9.14409e-015
lhumerus -7.81084 11.385 79.8161
lradius 18.4806
lwrist -3.54311
lhand -22.4516 -4.62182
lfingers 7.12502
lthumb 3.97263 25.3209
rfemur -52.5927 -1.74966 24.0161
rtibia 68.2325
rfoot -37.9303 -24.1192
rtoes -16.9493
lfemur -56.6066 12.8347 -17.1894
ltibia 73.5983
lfoot -29.5198 21.7959
ltoes -36.5225
291
root 0.159205 15.1708 -11.5532 28.9465 -0.571031 -4.01671
lowerback 17.7739 2.03168 -3.30445
upperback -2.57326 2.3441 2.88969
thorax -13.2051 1.48402 4.44751
lowerneck -25.6477 -0.757284 -2.38032
upperneck 6.47596 -0.33248 0.713385
head 5.9973 -0.165558 0.568763
rclavicle 2.38542e-014 1.33186e-014
rhumerus -11.7466 -8.26233 -75.2131
rradius 31.4393
rwrist 33.2993
rhand -17.8161 -24.9451
rfingers 7.12502
rthumb 8.44782 -54.7561
lclavicle 2.38542e-014 1.33186e-014
lhumerus -8.95014 8.39618 79.0385
lradius 19.6212
lwrist -0.643367
lhand -22.3806 -4.29404
lfingers 7.12502
lthumb 4.04127 25.6474
rfemur -49.933 -2.18762 23.9395
rtibia 66.2268
rfoot -37.5217 -23.9257
rtoes -17.9639
lfemur -54.1607 12.9347 -16.9783
ltibia 72.0688
lfoot -29.0987 21.303
ltoes -37.1017
292
root 0.165657 15.2945 -11.3057 28.352 -0.538004 -3.92479
lowerback 17.2226 1.95704 -3.2248
upperback -2.83519 2.27384 2.84976
thorax -13.1681 1.44901 4.38339
lowerneck -25.3782 -0.761383 -2.47761
upperneck 6.8163 -0.310174 0.686829
head 6.06934 -0.162529 0.578468
rclavicle 7.95139e-015 -1.59028e-015
rhumerus -12.9554 -6.58455 -74.3244
rradius 33.2005
rwrist 32.4859
rhand -17.7936 -24.9369
rfingers 7.12502
rthumb 8.46951 -54.7471
lclavicle 7.95139e-015 -1.59028e-015
lhumerus -10.2161 5.50153 78.2292
lradius 20.7646
lwrist 1.95839
lhand -22.328 -4.11983
lfingers 7.12502
lthumb 4.09201 25.8206
rfemur -47.1623 -2.68449 23.8193
rtibia 64.0107
rfoot -36.9387 -23.579
rtoes -18.9528
lfemur -51.5961 13.0633 -16.8082
ltibia 70.3188
lfoot -28.5625 20.6907
ltoes -37.6828
